<svg width="17" height="14" viewBox="0 0 17 14" fill="none" xmlns="http://www.w3.org/2000/svg">
<path d="M9.93246 3.3427C9.93246 5.19113 8.43334 6.68539 6.58977 6.68539C4.74619 6.68539 3.24707 5.18627 3.24707 3.3427C3.24707 1.49912 4.74134 0 6.58492 0C8.42849 0 9.92761 1.49912 9.92761 3.3427H9.93246Z" fill="#FF3CAB"/>
<path d="M13.1798 13.1799C13.1798 9.5925 10.2313 6.68555 6.59265 6.68555C2.95399 6.68555 0 9.5925 0 13.1799H13.1798Z" fill="#FF3CAB"/>
<circle cx="13.1796" cy="9.93253" r="3.72022" fill="#FF3CAB" stroke="black" stroke-width="0.2"/>
<rect x="12.5059" y="7.46094" width="1.34831" height="4.94382" rx="0.191011" fill="black"/>
<rect x="10.708" y="10.6064" width="1.34831" height="4.94382" rx="0.191011" transform="rotate(-90 10.708 10.6064)" fill="black"/>
</svg>
