<svg width="19" height="14" viewBox="0 0 19 14" fill="none" xmlns="http://www.w3.org/2000/svg">
<path fill-rule="evenodd" clip-rule="evenodd" d="M7.04893 0H13.7995C14.3238 0 14.5588 0.448881 14.7525 0.917775L15.4698 2.65397H16.7189C17.9736 2.65397 19 3.64251 19 4.85084V11.8031C19 13.0111 17.9736 14 16.7189 14H2.28111C1.02682 14 0 13.0115 0 11.8031V4.85084C0 3.64251 1.02645 2.65397 2.28111 2.65397H5.2892L6.09596 0.917775C6.31008 0.457101 6.52494 0 7.04893 0ZM9.89633 5.15283C11.4219 5.15283 12.6602 6.34508 12.6602 7.81467C12.6602 9.28425 11.4223 10.4761 9.89633 10.4761C8.37039 10.4761 7.13242 9.28389 7.13242 7.81431C7.13242 6.34508 8.37076 5.15248 9.89633 5.15248V5.15283ZM16.4302 4.13034C16.9341 4.13034 17.342 4.52347 17.342 5.00845C17.342 5.49343 16.9338 5.88655 16.4302 5.88655C15.9266 5.88655 15.518 5.49343 15.518 5.00845C15.5195 4.52312 15.9277 4.13034 16.4302 4.13034ZM9.89633 3.42021C12.4175 3.42021 14.4608 5.388 14.4608 7.8161C14.4608 10.2442 12.4172 12.212 9.89633 12.212C7.37549 12.212 5.33187 10.2424 5.33187 7.8161C5.33336 5.38835 7.3766 3.42021 9.89633 3.42021Z" fill="#FF3CAB"/>
</svg>
