<svg width="30" height="30" viewBox="0 0 30 30" fill="none" xmlns="http://www.w3.org/2000/svg">
<path fill-rule="evenodd" clip-rule="evenodd" d="M11.1516 6.01008H19.6724L21.6136 9.51924H25.6133C25.8262 9.51924 26 9.70164 26 9.9118V23.6074C26 23.8176 25.8223 24 25.6133 24H2.38669C2.17967 23.998 2 23.8216 2 23.6074V9.9118C2 9.69569 2.17381 9.51924 2.38669 9.51924H4.18537V8.26031H6.40784V9.51924H8.82171C9.32362 8.51209 9.82554 7.50693 10.3274 6.49978C10.6321 5.88716 10.4642 6.01008 11.1516 6.01008ZM23.4963 11.254C24.133 11.254 24.6485 11.7774 24.6485 12.4237C24.6485 13.07 24.133 13.5934 23.4963 13.5934C22.8596 13.5934 22.344 13.07 22.344 12.4237C22.346 11.7774 22.8616 11.254 23.4963 11.254ZM15.0146 12.616C16.9421 12.616 18.5065 14.2041 18.5065 16.1609C18.5065 18.1177 16.9421 19.7057 15.0146 19.7057C13.087 19.7057 11.5227 18.1177 11.5227 16.1609C11.5227 14.2041 13.087 12.616 15.0146 12.616ZM15.0146 10.3083C18.1999 10.3083 20.7817 12.9293 20.7817 16.1629C20.7817 19.3965 18.1999 22.0174 15.0146 22.0174C11.8293 22.0174 9.24746 19.3945 9.24746 16.1629C9.24746 12.9293 11.8312 10.3083 15.0146 10.3083Z" fill="white"/>
</svg>
