<svg width="32" height="31" viewBox="0 0 32 31" fill="none" xmlns="http://www.w3.org/2000/svg">
<g clip-path="url(#clip0_500_309)">
<path d="M32.0001 9.3975C32.0001 10.1106 31.9218 10.804 31.7736 11.4724C31.7009 11.7986 31.6117 12.1183 31.5067 12.4306C29.0898 21.7423 16.0249 31 16.0249 31C16.0249 31 1.89881 21.0647 0.197019 11.4276C0.193338 11.4043 0.188736 11.3801 0.185054 11.3568H0.202541C0.0700057 10.7248 0.000976715 10.0695 0.000976715 9.3975C5.63289e-05 4.20753 4.15468 0 9.27939 0C11.9237 0 14.3102 1.12039 16.0001 2.91749C17.6908 1.12039 20.0764 0 22.7207 0C27.8454 0 32.0001 4.20753 32.0001 9.3975Z" fill="#ACACAC"/>
<path fill-rule="evenodd" clip-rule="evenodd" d="M20.9911 12.6058C20.9911 15.3891 18.7629 17.6457 16.0146 17.6457C13.2663 17.6457 11.0381 15.3891 11.0381 12.6058C11.0381 9.82255 13.2663 7.56592 16.0146 7.56592C18.7629 7.56592 20.9911 9.82255 20.9911 12.6058Z" fill="white"/>
<path fill-rule="evenodd" clip-rule="evenodd" d="M31.7885 11.4725C31.7158 11.7988 31.6265 12.1185 31.5216 12.4307C29.1046 21.7425 16.0397 31.0001 16.0397 31.0001C16.0397 31.0001 1.91365 21.0648 0.210938 11.4278C0.213699 11.3812 0.21646 11.3569 0.21646 11.3569C0.21646 11.3569 6.99695 18.6684 16.0149 18.6684C25.0328 18.6684 31.7811 11.3569 31.7811 11.3569C31.7811 11.3569 31.7848 11.3961 31.7885 11.4725Z" fill="white"/>
</g>
<defs>
<clipPath id="clip0_500_309">
<rect width="32" height="31" fill="white"/>
</clipPath>
</defs>
</svg>
