<svg width="30" height="30" viewBox="0 0 30 30" fill="none" xmlns="http://www.w3.org/2000/svg">
<path d="M22.589 7.41049C22.0403 6.86187 21.1508 6.86187 20.6031 7.41049L14.5004 13.5128L8.39779 7.41049C7.84913 6.8628 6.95966 6.8628 6.41101 7.41049C5.86235 7.95912 5.86235 8.8476 6.41101 9.39623L12.5137 15.4986L6.41101 21.6018C5.86235 22.1504 5.86235 23.0399 6.41101 23.5876C6.68534 23.8619 7.04487 23.9986 7.4044 23.9986C7.76393 23.9986 8.12346 23.8619 8.39779 23.5876L14.5004 17.4852L20.6031 23.5876C20.8774 23.8619 21.237 23.9986 21.5965 23.9986C21.956 23.9986 22.3156 23.8619 22.5899 23.5876C23.1385 23.0389 23.1385 22.1504 22.5899 21.6018L16.4872 15.4995L22.589 9.39717C23.1376 8.84854 23.1376 7.95912 22.589 7.41143V7.41049Z" fill="white"/>
</svg>
