<svg width="32" height="32" viewBox="0 0 32 32" fill="none" xmlns="http://www.w3.org/2000/svg">
<rect width="32" height="32" rx="4" fill="black"/>
<path d="M23.589 8.41049C23.0403 7.86187 22.1508 7.86187 21.6031 8.41049L15.5004 14.5128L9.39779 8.41049C8.84913 7.8628 7.95966 7.8628 7.41101 8.41049C6.86235 8.95912 6.86235 9.8476 7.41101 10.3962L13.5137 16.4986L7.41101 22.6018C6.86235 23.1504 6.86235 24.0399 7.41101 24.5876C7.68534 24.8619 8.04487 24.9986 8.4044 24.9986C8.76393 24.9986 9.12346 24.8619 9.39779 24.5876L15.5004 18.4852L21.6031 24.5876C21.8774 24.8619 22.237 24.9986 22.5965 24.9986C22.956 24.9986 23.3156 24.8619 23.5899 24.5876C24.1385 24.0389 24.1385 23.1504 23.5899 22.6018L17.4872 16.4995L23.589 10.3972C24.1376 9.84854 24.1376 8.95912 23.589 8.41143V8.41049Z" fill="white"/>
</svg>
