<svg width="36" height="36" viewBox="0 0 36 36" fill="none" xmlns="http://www.w3.org/2000/svg">
<path fill-rule="evenodd" clip-rule="evenodd" d="M17.9998 0.486328C8.32739 0.486328 0.486327 8.3274 0.486328 17.9998C0.486328 27.6723 8.32739 35.5134 17.9998 35.5134C27.6723 35.5134 35.5134 27.6723 35.5134 17.9998C35.5134 8.3274 27.6723 0.486328 17.9998 0.486328ZM17.9998 28.2161C16.7908 28.2161 15.8107 27.2359 15.8107 26.0269C15.8107 24.8178 16.7908 23.8377 17.9998 23.8377C19.2089 23.8377 20.189 24.8178 20.189 26.0269C20.189 27.2359 19.2089 28.2161 17.9998 28.2161ZM20.335 19.3425C19.8014 19.5754 19.4573 20.1031 19.4593 20.6852C19.4593 21.4913 18.8059 22.1447 17.9998 22.1447C17.1938 22.1447 16.5404 21.4913 16.5404 20.6852C16.5401 18.9441 17.5716 17.3682 19.1674 16.6717C20.5024 16.0891 21.2035 14.6115 20.8105 13.209C20.4175 11.8064 19.0507 10.9083 17.6074 11.1041C16.1641 11.2999 15.086 12.5298 15.0809 13.9863C15.0809 14.7924 14.4275 15.4458 13.6215 15.4458C12.8154 15.4458 12.162 14.7924 12.162 13.9863C12.1649 11.0714 14.3175 8.60526 17.2054 8.20855C20.0932 7.81185 22.8311 9.60616 23.6199 12.4124C24.4087 15.2186 23.0066 18.1766 20.335 19.3425Z" fill="url(#paint0_linear_389_7000)"/>
<defs>
<linearGradient id="paint0_linear_389_7000" x1="18.0444" y1="30.5183" x2="18.0519" y2="-1.7748" gradientUnits="userSpaceOnUse">
<stop stop-color="#FF3CAB"/>
<stop offset="0.549661" stop-color="#8F27D4"/>
<stop offset="0.975962" stop-color="#8F5CEC"/>
</linearGradient>
</defs>
</svg>
