<svg width="233" height="237" viewBox="0 0 233 237" fill="none" xmlns="http://www.w3.org/2000/svg">
<ellipse cx="116.5" cy="118.5" rx="116.5" ry="118.5" fill="url(#paint0_linear_343_521)"/>
<path d="M163.734 97.3065C155.47 96.3744 135.727 97.0269 122.876 107.094C106.812 119.678 109.257 134.708 111.003 141" stroke="#9C2AD0"/>
<path d="M98.0664 50C134.554 50 164.133 70.3452 164.133 95.4424C164.133 120.54 134.554 140.885 98.0664 140.885C93.4333 140.885 88.9118 140.555 84.5479 139.931L41.7881 162.907L53.959 129.271C40.4805 120.952 32 108.879 32 95.4424C32.0001 70.3452 61.579 50 98.0664 50Z" fill="black"/>
<path d="M104.008 117.814C87.5094 101.595 84.554 84.4898 85.4862 78.6638C82.1304 80.901 79.4272 85.4219 78.8446 87.4027C78.5649 97.7496 92.1235 116.882 98.7651 124.805L104.008 117.814Z" fill="url(#paint1_linear_343_521)"/>
<path d="M88.9777 103.832C97.0175 95.7921 100.513 85.3054 102.261 80.7611C106.176 83.5576 106.223 89.6166 105.756 92.2965C102.261 103.133 88.162 117.232 81.9865 122.708L76.7432 114.319C77.4423 113.62 80.9379 111.872 88.9777 103.832Z" fill="url(#paint2_linear_343_521)"/>
<path d="M93.2673 78.7699C84.3186 78.4902 79.6346 84.2463 78.9354 87.1592C78.0965 78.7699 83.0136 72.4778 85.577 70.3805C92.5682 65.9061 98.0446 67.584 99.9089 68.9822C109.347 73.876 108.298 84.7123 107.949 86.4601C107.669 87.8583 106.222 91.5974 105.407 93.3452C107.085 82.439 97.9281 79.1194 93.2673 78.7699Z" fill="url(#paint3_linear_343_521)"/>
<path d="M155.394 95.4425C180.684 95.4425 201.186 111.406 201.186 131.098C201.185 139.533 197.421 147.282 191.132 153.387L201.885 182.483L169.877 164.93C165.325 166.111 160.455 166.752 155.394 166.752C130.104 166.752 109.602 150.789 109.602 131.098C109.602 111.406 130.103 95.4425 155.394 95.4425Z" fill="black"/>
<path d="M153.671 117.206C156.367 113.358 162.969 107.185 170.774 110.251C180.562 114.097 181.26 122.486 179.513 129.827C177.765 137.167 166.23 149.274 153.646 152.42C141.062 149.274 129.578 137.167 127.83 129.827C126.082 122.486 126.781 114.097 136.568 110.251C144.373 107.185 150.974 113.358 153.671 117.206Z" fill="url(#paint4_linear_343_521)"/>
<path d="M164.734 96.3995C159.449 95.7028 144.872 95.0681 130.203 102.321C109.766 112.426 106.243 131.592 110.119 141" stroke="#9F2BCE" stroke-width="2"/>
<defs>
<linearGradient id="paint0_linear_343_521" x1="116.796" y1="203.202" x2="116.848" y2="-15.2993" gradientUnits="userSpaceOnUse">
<stop stop-color="#FF3CAB"/>
<stop offset="0.549661" stop-color="#8F27D4"/>
<stop offset="0.975962" stop-color="#8F5CEC"/>
</linearGradient>
<linearGradient id="paint1_linear_343_521" x1="77.7917" y1="79.0134" x2="104.017" y2="126.549" gradientUnits="userSpaceOnUse">
<stop stop-color="#B60067"/>
<stop offset="0.975962" stop-color="#9812E0"/>
</linearGradient>
<linearGradient id="paint2_linear_343_521" x1="91.4246" y1="124.456" x2="91.3971" y2="78.0533" gradientUnits="userSpaceOnUse">
<stop stop-color="#8F27D4"/>
<stop offset="0.463103" stop-color="#EC935C"/>
<stop offset="0.860963" stop-color="#FF3CAB"/>
</linearGradient>
<linearGradient id="paint3_linear_343_521" x1="81.2872" y1="69.5753" x2="108.203" y2="91.9469" gradientUnits="userSpaceOnUse">
<stop offset="0.192308" stop-color="#FF3CAB"/>
<stop offset="0.342044" stop-color="#E17661"/>
<stop offset="0.76413" stop-color="#F38846"/>
<stop offset="1" stop-color="#8F27D4"/>
</linearGradient>
<linearGradient id="paint4_linear_343_521" x1="153.646" y1="155.566" x2="159.935" y2="81.8087" gradientUnits="userSpaceOnUse">
<stop stop-color="#8F27D4"/>
<stop offset="0.260581" stop-color="#FF3CAB"/>
<stop offset="0.619148" stop-color="#FFAB70"/>
</linearGradient>
</defs>
</svg>
