<svg width="16" height="15" viewBox="0 0 16 15" fill="none" xmlns="http://www.w3.org/2000/svg">
<path d="M7.68359 0.50293C7.59105 0.487994 7.38496 0.52173 7.10352 0.717773C6.55972 1.09656 5.99026 1.91547 5.91602 2.97949H5.91504C5.88061 3.80856 5.94703 4.6388 6.11328 5.45117L6.23633 6.05176H2.13379C1.51083 6.08019 0.991851 6.31994 0.722656 6.66016C0.481777 6.96463 0.365432 7.44565 0.743164 8.17676L0.833008 8.34961L0.782227 8.53711C0.688556 8.88204 0.643122 9.22821 0.670898 9.50684C0.698885 9.78732 0.789182 9.91997 0.885742 9.98145L1.13477 10.1396L1.11719 10.4326C1.05525 11.4975 1.33924 12.0913 1.83105 12.5635L1.98047 12.7061L1.98438 12.9131C1.99393 13.3618 2.1239 13.7984 2.35742 14.1777C2.53455 14.4297 2.64174 14.4649 2.72949 14.4814C2.79843 14.4944 2.88641 14.4986 3.02637 14.4951C3.15021 14.492 3.34234 14.4815 3.5332 14.4814H9.44629C9.86777 14.4814 10.1437 14.4228 10.3701 14.3076C10.5712 14.2052 10.7675 14.0378 11.0039 13.7549V7.59863C10.1197 7.22938 9.46741 6.46157 8.99121 5.65527C8.44501 4.73033 8.07939 3.67101 7.83887 2.85449L7.81836 2.78516V0.691406C7.79536 0.595697 7.7656 0.551936 7.75 0.535156C7.73603 0.520147 7.71892 0.508655 7.68359 0.50293ZM12.7266 6.80078L12.7061 6.80566C12.6996 6.80849 12.6932 6.8126 12.6875 6.81836C12.6754 6.83073 12.6671 6.84939 12.667 6.87012V14.4307C12.6676 14.451 12.6755 14.4691 12.6875 14.4814C12.6998 14.494 12.7154 14.4999 12.7295 14.5H15.4375C15.4515 14.4999 15.4662 14.4939 15.4785 14.4814C15.4849 14.475 15.4904 14.4672 15.4941 14.458L15.5 14.4287V6.87305C15.4999 6.8516 15.4911 6.83217 15.4785 6.81934C15.4662 6.80693 15.4515 6.80092 15.4375 6.80078H12.7266Z" stroke="white"/>
</svg>
