<svg width="17" height="10" viewBox="0 0 17 10" fill="none" xmlns="http://www.w3.org/2000/svg">
<g clip-path="url(#clip0_372_2366)">
<path d="M15.1147 0.948242H11.5027V5.40959C11.5027 6.20427 10.8031 6.85953 9.93222 6.85953H5.13525V6.92924C5.13525 7.43114 5.59211 7.83545 6.16318 7.83545H13.1445L15.029 9.84306L14.872 7.83545H15.1289C15.7 7.83545 16.1569 7.43114 16.1569 6.92924V1.8684C16.1569 1.36649 15.7 0.962184 15.1289 0.962184L15.1147 0.948242Z" fill="black"/>
<path d="M9.93205 6.23195C10.446 6.23195 10.86 5.86947 10.86 5.40939V0.822562C10.86 0.362485 10.446 0 9.93205 0H1.83716C1.3232 0 0.90918 0.376426 0.90918 0.822562V5.40939C0.90918 5.86947 1.3232 6.23195 1.83716 6.23195H2.06559L1.92282 8.04437L3.62175 6.23195H9.91777H9.93205Z" fill="black"/>
</g>
<defs>
<clipPath id="clip0_372_2366">
<rect width="15.2332" height="9.8568" fill="white" transform="translate(0.90918)"/>
</clipPath>
</defs>
</svg>
