<svg width="40" height="40" viewBox="0 0 40 40" fill="none" xmlns="http://www.w3.org/2000/svg">
<path d="M20.5 3C19.2063 3 18.1562 4.0752 18.1562 5.4V6.5125C14.1143 7.57935 11.125 11.3277 11.125 15.8V25.4L8.72632 27.25H8.72327C8.50155 27.3946 8.31904 27.5941 8.19261 27.83C8.06619 28.066 7.99994 28.3308 8 28.6C8 29.0243 8.16462 29.4313 8.45765 29.7314C8.75067 30.0314 9.1481 30.2 9.5625 30.2H20.5H31.4375C31.8519 30.2 32.2493 30.0314 32.5424 29.7314C32.8354 29.4313 33 29.0243 33 28.6C33.0001 28.3308 32.9338 28.066 32.8074 27.83C32.681 27.5941 32.4984 27.3946 32.2767 27.25L29.875 25.4V15.8C29.875 11.3277 26.8857 7.57935 22.8438 6.5125V5.4C22.8438 4.0752 21.7937 3 20.5 3ZM17.375 31.8C17.375 33.56 18.7812 35 20.5 35C22.2188 35 23.625 33.56 23.625 31.8H17.375Z" fill="#FF3CAB"/>
</svg>
