<svg width="25" height="24" viewBox="0 0 25 24" fill="none" xmlns="http://www.w3.org/2000/svg">
<path d="M9.13066 12.4566C9.13066 14.4045 10.7061 15.98 12.6541 15.98C14.602 15.98 16.1775 14.4045 16.1775 12.4566C16.1775 10.5086 14.602 8.93315 12.6541 8.93315C10.7061 8.93315 9.13066 10.5086 9.13066 12.4566ZM24.1102 12.1244C22.9324 10.7955 18.2513 5.91309 12.6541 5.91309C7.05688 5.91309 2.37578 10.7955 1.19795 12.1244C1.03688 12.3156 1.03688 12.5975 1.19795 12.7888C2.37578 14.1176 7.05688 19 12.6541 19C18.2513 19 22.9324 14.1176 24.1102 12.7888C24.2713 12.5975 24.2713 12.3156 24.1102 12.1244Z" stroke="black" stroke-width="0.916388" stroke-linecap="round" stroke-linejoin="round"/>
</svg>
