<svg width="35" height="35" viewBox="0 0 35 35" fill="none" xmlns="http://www.w3.org/2000/svg">
<circle cx="17.5" cy="17.5" r="17.3" fill="white" stroke="black" stroke-width="0.4"/>
<g clip-path="url(#clip0_372_1859)">
<path d="M25.6642 24.1506L21.4247 19.9525C22.2852 18.8095 22.8099 17.3963 22.8099 15.8584C22.8099 12.076 19.7037 9.021 15.9049 9.021C12.1062 9.021 9 12.076 9 15.8376C9 19.5992 12.1062 22.675 15.9049 22.675C17.3741 22.675 18.7383 22.2178 19.8506 21.4281L24.1111 25.6469C24.321 25.8547 24.6148 25.9586 24.8877 25.9586C25.1605 25.9586 25.4543 25.8547 25.6642 25.6469C26.084 25.2105 26.084 24.5454 25.6642 24.109V24.1506ZM10.8679 15.8376C10.8679 13.0943 13.1346 10.8498 15.9049 10.8498C18.6753 10.8498 20.942 13.0943 20.942 15.8376C20.942 18.5809 18.6753 20.8254 15.9049 20.8254C13.1346 20.8254 10.8679 18.6017 10.8679 15.8376Z" fill="black"/>
</g>
<defs>
<clipPath id="clip0_372_1859">
<rect width="17" height="17" fill="white" transform="translate(9 9)"/>
</clipPath>
</defs>
</svg>
