<svg width="34" height="34" viewBox="0 0 34 34" fill="none" xmlns="http://www.w3.org/2000/svg">
<path fill-rule="evenodd" clip-rule="evenodd" d="M10.8523 7.02969L32.3196 16.5973C32.4518 16.6419 32.5675 16.7255 32.6516 16.8369C32.7357 16.9483 32.7843 17.0825 32.7908 17.2218C32.7974 17.3611 32.7618 17.499 32.6886 17.6174C32.6154 17.7359 32.508 17.8294 32.3806 17.8857L10.8846 27.5075C10.7611 27.563 10.624 27.581 10.4902 27.5592C10.3564 27.5375 10.2318 27.4769 10.1319 27.3851C10.032 27.2932 9.96127 27.1741 9.92837 27.0426C9.89548 26.911 9.90191 26.7728 9.94688 26.6451L12.4909 19.3163L24.0181 17.2858L12.5125 15.2251L9.9196 7.88956C9.87472 7.76204 9.86813 7.62427 9.90062 7.49324C9.93312 7.36222 10.0033 7.24367 10.1025 7.15223C10.2017 7.0608 10.3255 7.00047 10.4588 6.97869C10.592 6.95691 10.7288 6.97464 10.8523 7.02969Z" fill="url(#paint0_linear_379_6507)"/>
<defs>
<linearGradient id="paint0_linear_379_6507" x1="10.6491" y1="23.186" x2="25.9009" y2="7.94134" gradientUnits="userSpaceOnUse">
<stop stop-color="#FF3CAB"/>
<stop offset="0.549661" stop-color="#8F27D4"/>
<stop offset="0.975962" stop-color="#8F5CEC"/>
</linearGradient>
</defs>
</svg>
